<svg id="Grupo_36" data-name="Grupo 36" xmlns="http://www.w3.org/2000/svg" xmlns:xlink="http://www.w3.org/1999/xlink" width="41.934" height="47.599" viewBox="0 0 41.934 47.599">
  <defs>
    <clipPath id="clip-path">
      <rect id="Retângulo_36" data-name="Retângulo 36" width="41.934" height="47.599" fill="none"/>
    </clipPath>
  </defs>
  <g id="Grupo_35" data-name="Grupo 35" clip-path="url(#clip-path)">
    <path id="Caminho_27" data-name="Caminho 27" d="M24.331,35.564h1.988v4.463h2.364V35.564h1.989v9.361l-19.981,0c-3.293.022-6.35.04-8.011-3.643V33.76a6.822,6.822,0,0,0,1.883,1.107V38.55H6.926V35.436a19.539,19.539,0,0,0,1.988.126v4.3h2.364v-4.3h1.988v3.147h2.364V35.563h1.989v4.463h2.364V35.563h1.989v3.147h2.364V35.564Zm-12.8-3.953h22.78l.006,13.493A18.359,18.359,0,0,0,38.3,40.254c3.564-6.073,5.521-15.944,1-22-2.612-3.5-7.227-5.473-14.5-4.322A24.355,24.355,0,0,1,26.564,8.02a37.442,37.442,0,0,1,2.811-5.256L26.536,1.5A40.4,40.4,0,0,0,24.16,6.694a7.591,7.591,0,0,0-2.8-3.411C18.238,1.071,13.672.528,9.922,0,10.9,3.868,11.885,7.42,15.18,10.07a10.7,10.7,0,0,0,7.355,2.308l-.275,1.637c-7.6-1.334-12.4.606-15.075,4.133a12.927,12.927,0,0,0-2.354,5.644,7.086,7.086,0,0,0-4.095,3.85A6.079,6.079,0,0,0,0,30.431V41.819L.482,42.9c2.364,4.749,6.149,4.726,10.218,4.7l22.334,0c0-4.9.008-9.8-.007-14.7h-21.5c-1.137,0-2.3.039-3.428-.052-2.447-.2-4.184-1.043-5.3-3.328A6.4,6.4,0,0,1,4.568,27.1L4.6,28.173c.039.671.109,1.349.208,2.027a4.672,4.672,0,0,0,2.96,1.329,30.468,30.468,0,0,0,3.762.082Z" transform="translate(0 -0.001)" fill-rule="evenodd"/>
  </g>
</svg>
