<svg id="Componente_2_1" data-name="Componente 2 – 1" xmlns="http://www.w3.org/2000/svg" xmlns:xlink="http://www.w3.org/1999/xlink" width="358.092" height="156.154" viewBox="0 0 358.092 156.154">
  <defs>
    <clipPath id="clip-path">
      <rect id="Retângulo_25" data-name="Retângulo 25" width="358.092" height="156.154" fill="#283e84"/>
    </clipPath>
  </defs>
  <g id="Grupo_20" data-name="Grupo 20" clip-path="url(#clip-path)">
    <path id="Caminho_10" data-name="Caminho 10" d="M342.505,95.034c-10.011,24.587-39,35.773-63.155,41.338-49.784,11.47-103.1.507-146.941-24.472-22.384-12.754-42.442-28.99-60.3-47.389A120.435,120.435,0,0,0,92.191,47.649c2.764-2.888,2.768-8.721-1.383-10.609Q49.945,18.46,8.658.583C3.412-1.68-2.01,3.007.739,8.415c11.8,23.21,21.12,47.688,30.1,72.077,1.523,4.141,7.649,3,7.694-.732a5.85,5.85,0,0,0,2.358-.223,126.258,126.258,0,0,0,17.757-7.21q8.033,8.6,16.765,16.6c40.33,36.741,90.8,61.718,145.813,66.454,47.3,4.073,116.111-6.853,136.271-56.252,3.749-9.186-11.3-13.152-14.991-4.089M21.649,32.081q-2.85-7.637-5.676-15.289l1.9.915a7.292,7.292,0,0,0,.9,2.086q2.8,4.528,5.734,8.964a5.673,5.673,0,0,0-2.863,3.323m20.7-2.737q4.735,2.232,9.475,4.442c-.571-.033-1.14-.066-1.717-.064a6.067,6.067,0,0,0-3.613,1.14c-1.4-1.824-2.776-3.669-4.145-5.518m6.829,32.314q-1.361.615-2.743,1.2-.111-2.5-.441-4.973c1.047,1.27,2.117,2.521,3.184,3.776" transform="translate(-0.001 0)" fill="#283e84"/>
  </g>
</svg>
