<svg id="Grupo_38" data-name="Grupo 38" xmlns="http://www.w3.org/2000/svg" xmlns:xlink="http://www.w3.org/1999/xlink" width="51.196" height="43.238" viewBox="0 0 51.196 43.238">
  <defs>
    <clipPath id="clip-path">
      <rect id="Retângulo_37" data-name="Retângulo 37" width="51.196" height="43.238" fill="none"/>
    </clipPath>
  </defs>
  <g id="Grupo_37" data-name="Grupo 37" clip-path="url(#clip-path)">
    <path id="Caminho_28" data-name="Caminho 28" d="M46.008,11.858A8.856,8.856,0,0,0,40.2,5.437a8.853,8.853,0,0,0-9.211-3.774,3.3,3.3,0,0,0-5.456-.4,5.076,5.076,0,0,0-6.02.784,4.98,4.98,0,0,0-1.892-.363,5.1,5.1,0,0,0-4.233,2.255,9.343,9.343,0,0,0-1.166-.076A8.843,8.843,0,0,0,4.51,8.371,8.86,8.86,0,0,0,1.185,20.515a8.855,8.855,0,0,0,8.781,7.8c.1,0,.191-.009.3-.009A8.857,8.857,0,0,0,23.056,31.58a8.873,8.873,0,0,0,5,4.5l4.787,7.157,1.71-1.061-.3-3.239a3.709,3.709,0,0,0,2.781-1.472,5.352,5.352,0,0,0,8.007-4.176,5.361,5.361,0,0,0,4.749-4.137,8.783,8.783,0,0,0,1.4-4.778,8.926,8.926,0,0,0-.277-2.217,8.926,8.926,0,0,0,.277-2.217,8.835,8.835,0,0,0-5.188-8.084Zm-36.6.65a3.464,3.464,0,0,0-3.459,3.459.516.516,0,0,1-1.032,0A4.488,4.488,0,0,1,9.4,11.485a3.475,3.475,0,0,0,3.469-3.469.516.516,0,0,1,1.032,0A4.5,4.5,0,0,1,9.411,12.508ZM31.78,5.886a6.035,6.035,0,0,1,6.029,6.029.516.516,0,0,1-1.032,0,5.012,5.012,0,0,0-5.007-5.007.514.514,0,0,1-.516-.516A.519.519,0,0,1,31.78,5.886ZM16.663,13.425a.513.513,0,0,1,0-.726,9.481,9.481,0,0,1,13.406-.009.514.514,0,1,1-.726.726,8.455,8.455,0,0,0-11.954,0,.522.522,0,0,1-.363.153.513.513,0,0,1-.363-.144Zm19.177,12.3a.507.507,0,0,1-.678.258,5.01,5.01,0,0,0-6.6,2.561.51.51,0,0,1-.468.306.422.422,0,0,1-.21-.048.515.515,0,0,1-.258-.678,6.026,6.026,0,0,1,7.95-3.086.536.536,0,0,1,.267.688Zm-6.1-6.335a9.22,9.22,0,0,0-11.409,6.307.519.519,0,0,1-.487.373.72.72,0,0,1-.143-.019.517.517,0,0,1-.354-.631A10.233,10.233,0,0,1,30.021,18.4,9.236,9.236,0,0,0,41.43,12.087a.511.511,0,1,1,.984.277,10.25,10.25,0,0,1-12.67,7.023Zm8.59,11.6a.516.516,0,0,1,0-1.032,6.443,6.443,0,0,0,6.44-6.44.516.516,0,0,1,1.032,0A7.483,7.483,0,0,1,38.334,30.988Z"/>
  </g>
</svg>
