<svg id="Componente_1_1" data-name="Componente 1 – 1" xmlns="http://www.w3.org/2000/svg" width="39.566" height="59.35" viewBox="0 0 39.566 59.35">
  <path id="Caminho_2" data-name="Caminho 2" d="M33.675,46.093H13.892A9.921,9.921,0,0,1,4,36.2V18.892A9.921,9.921,0,0,1,13.892,9H33.675a9.921,9.921,0,0,1,9.892,9.892V36.2A9.921,9.921,0,0,1,33.675,46.093ZM13.892,13.946a4.96,4.96,0,0,0-4.946,4.946V36.2a4.96,4.96,0,0,0,4.946,4.946H33.675A4.96,4.96,0,0,0,38.621,36.2V18.892a4.96,4.96,0,0,0-4.946-4.946Z" transform="translate(-4 13.256)" fill="#283e84"/>
  <path id="Caminho_3" data-name="Caminho 3" d="M33.2,27.2H8.473A2.336,2.336,0,0,1,6,24.729V14.837A14.881,14.881,0,0,1,20.837,0,14.724,14.724,0,0,1,35.675,14.837v9.892A2.336,2.336,0,0,1,33.2,27.2ZM10.946,22.256H30.729V14.837a9.892,9.892,0,0,0-19.783,0Z" transform="translate(-1.054)" fill="#283e84"/>
  <ellipse id="Elipse_1" data-name="Elipse 1" cx="4.937" cy="4.937" rx="4.937" ry="4.937" transform="translate(14.846 32.966)" fill="#283e84"/>
  <path id="Caminho_4" data-name="Caminho 4" d="M13.473,27.364A2.336,2.336,0,0,1,11,24.892V17.473A2.336,2.336,0,0,1,13.473,15a2.336,2.336,0,0,1,2.473,2.473v7.419A2.336,2.336,0,0,1,13.473,27.364Z" transform="translate(6.31 22.093)" fill="#283e84"/>
</svg>
