<svg id="XMLID_142_" xmlns="http://www.w3.org/2000/svg" width="49.441" height="56.652" viewBox="0 0 49.441 56.652">
  <path id="XMLID_275_" d="M74,50.358V69.347a20.286,20.286,0,0,0,40.573,0V50.358L94.286,41.9Zm33.057,9.334a2.215,2.215,0,0,1-.621,3.071L90.462,73.394a.707.707,0,0,1-.155.089l-.067.033a.66.66,0,0,0-.089.044l-.067.033-.1.033c-.022.011-.044.011-.066.022l-.1.033c-.022.011-.044.011-.067.022s-.078.011-.111.022-.033.011-.055.011a.54.54,0,0,1-.133.011h-.044c-.055,0-.111.011-.177.011h-.177a.216.216,0,0,1-.078-.011.1.1,0,0,1-.055-.011c-.022,0-.055-.011-.078-.011s-.033-.011-.044-.011a.205.205,0,0,1-.078-.022c-.011,0-.033-.011-.044-.011s-.055-.011-.078-.022-.033-.011-.044-.011a.206.206,0,0,0-.078-.022c-.011,0-.033-.011-.044-.011s-.055-.022-.078-.033-.022-.011-.033-.022a.277.277,0,0,1-.078-.044c-.011-.011-.022-.011-.033-.022-.033-.011-.055-.033-.089-.044-.011-.011-.022-.011-.033-.022A1.017,1.017,0,0,0,88,73.371c-.011,0-.011-.011-.022-.011-.033-.022-.067-.055-.1-.078s-.033-.033-.055-.044a.086.086,0,0,1-.044-.044c-.022-.011-.033-.033-.055-.055s-.033-.022-.044-.044l-.055-.055c-.011-.011-.022-.033-.044-.044s-.033-.033-.044-.055-.022-.022-.022-.033l-4.977-6.163a2.216,2.216,0,1,1,3.459-2.771l3.7,4.612,14.289-9.5A2.2,2.2,0,0,1,107.057,59.692Z" transform="translate(-69.566 -37.383)" fill="none"/>
  <path id="XMLID_290_" d="M81.279,10.268,60.1,1.433a3.457,3.457,0,0,0-2.738,0L36.184,10.257A3.537,3.537,0,0,0,34,13.516V33.1a24.72,24.72,0,0,0,49.441,0V13.516A3.53,3.53,0,0,0,81.279,10.268ZM79.007,33.115a20.286,20.286,0,0,1-40.573,0V14.125L58.72,5.667l20.286,8.458Z" transform="translate(-34 -1.15)" fill="#283e84"/>
  <path id="XMLID_291_" d="M150.56,199.09a2.216,2.216,0,0,0-3.459,2.771l4.966,6.2c.011.011.022.022.022.033s.033.033.044.055.022.033.044.044l.055.055c.011.011.033.022.044.044l.055.055.044.044c.022.011.033.033.055.044s.066.055.1.078c.011,0,.011.011.022.011a1.029,1.029,0,0,0,.089.055c.011.011.022.011.033.022.033.011.055.033.089.044.011.011.022.011.033.022a.279.279,0,0,1,.078.044c.011.011.022.011.033.022s.055.022.078.033.022.011.044.011a.206.206,0,0,0,.078.022c.011,0,.033.011.044.011s.055.011.078.022.033.011.044.011.055.011.078.022.033.011.044.011.055.011.078.011a.1.1,0,0,1,.055.011.217.217,0,0,1,.078.011h.177a1.018,1.018,0,0,0,.177-.011h.044c.044,0,.089-.011.133-.011.022,0,.033-.011.055-.011s.078-.011.111-.022a.158.158,0,0,0,.066-.022l.1-.033c.022-.011.044-.011.067-.022l.1-.033.067-.033a.655.655,0,0,0,.089-.044l.067-.033c.055-.033.1-.055.155-.089l15.974-10.62a2.215,2.215,0,0,0-2.45-3.691l-14.289,9.5-3.691-4.645Z" transform="translate(-134.132 -172.502)" fill="#283e84"/>
</svg>
