<svg id="Componente_2_1" data-name="Componente 2 – 1" xmlns="http://www.w3.org/2000/svg" xmlns:xlink="http://www.w3.org/1999/xlink" width="83.031" height="39.877" viewBox="0 0 83.031 39.877">
  <defs>
    <clipPath id="clip-path">
      <rect id="Retângulo_18" data-name="Retângulo 18" width="83.03" height="39.877"/>
    </clipPath>
  </defs>
  <g id="Grupo_10" data-name="Grupo 10" clip-path="url(#clip-path)">
    <path id="Caminho_6" data-name="Caminho 6" d="M81.578,17.411,74.838,9.878a6.484,6.484,0,0,0-4.382-1.912h-8.45l.469-4.457A3.137,3.137,0,0,0,59.326,0H19.138a3.653,3.653,0,0,0-3.591,3.244l-.2,1.861H9.738a1.276,1.276,0,1,0,0,2.552h20.1a1.276,1.276,0,0,0,0-2.552H17.918l.168-1.594a1.133,1.133,0,0,1,1.052-.958H59.326a.6.6,0,0,1,.465.191.618.618,0,0,1,.145.5L56.924,31.9H33.656a6.034,6.034,0,0,0-1.513-3.423,6.106,6.106,0,0,0-4.607-2A7.506,7.506,0,0,0,20.5,31.9H15.785a.6.6,0,0,1-.466-.191.624.624,0,0,1-.145-.5l.866-8.24H22.1a1.276,1.276,0,0,0,0-2.552H1.276a1.276,1.276,0,0,0,0,2.552h12.2l-.837,7.974a3.137,3.137,0,0,0,3.149,3.51h4.489a6.026,6.026,0,0,0,1.514,3.423,6.1,6.1,0,0,0,4.606,2,7.5,7.5,0,0,0,7.036-5.423H62.468a6.032,6.032,0,0,0,6.122,5.423,7.5,7.5,0,0,0,7.035-5.423h2.819a3.651,3.651,0,0,0,3.59-3.244l.971-9.229a6.545,6.545,0,0,0-1.427-4.57M31.119,33.045a4.552,4.552,0,0,1-.391,1.409,4.875,4.875,0,0,1-4.333,2.871,3.585,3.585,0,0,1-2.71-1.156,3.48,3.48,0,0,1-.832-1.715,4,4,0,0,1-.041-1.143A4.583,4.583,0,0,1,23.2,31.9a4.877,4.877,0,0,1,4.334-2.871,3.584,3.584,0,0,1,2.71,1.156,3.475,3.475,0,0,1,.833,1.715,4.026,4.026,0,0,1,.04,1.143m42.194,0a4.565,4.565,0,0,1-.389,1.409,4.876,4.876,0,0,1-4.333,2.871,3.587,3.587,0,0,1-2.71-1.155,3.49,3.49,0,0,1-.833-1.716A4.005,4.005,0,0,1,65,33.311,4.6,4.6,0,0,1,65.4,31.9a4.878,4.878,0,0,1,4.334-2.871,3.58,3.58,0,0,1,2.709,1.156,3.474,3.474,0,0,1,.833,1.715,3.984,3.984,0,0,1,.04,1.143m7.154-11.33-.971,9.23a1.131,1.131,0,0,1-1.052.958H75.85a6.036,6.036,0,0,0-1.514-3.423,6.1,6.1,0,0,0-4.606-2A7.505,7.505,0,0,0,62.693,31.9h-3.2l2.248-21.383h8.718a4.031,4.031,0,0,1,2.48,1.062l6.739,7.532a4.1,4.1,0,0,1,.791,2.6" transform="translate(0 0)"/>
    <path id="Caminho_7" data-name="Caminho 7" d="M1838.261,378.69a3.445,3.445,0,0,0-2.008-.871h-5.027a.725.725,0,0,0-.705.638l-.638,6.077a.564.564,0,0,0,.571.638h12.973c.353,0,.457-.2.235-.451Z" transform="translate(-1766.572 -364.748)"/>
    <path id="Caminho_8" data-name="Caminho 8" d="M98.324,297.632H119.7a1.276,1.276,0,0,0,0-2.552H98.324a1.276,1.276,0,1,0,0,2.552" transform="translate(-93.691 -284.871)"/>
    <path id="Caminho_9" data-name="Caminho 9" d="M172.1,442.621a1.276,1.276,0,0,0,0,2.552h24.565a1.276,1.276,0,1,0,0-2.552Z" transform="translate(-164.91 -427.308)"/>
  </g>
</svg>
